<svg xmlns="http://www.w3.org/2000/svg" viewBox="0 0 24 24" id="delete"><path d="M10 11c-.6 0-1 .4-1 1v4c0 .6.4 1 1 1s1-.4 1-1v-4c0-.6-.4-1-1-1zm4 0c-.6 0-1 .4-1 1v4c0 .6.4 1 1 1s1-.4 1-1v-4c0-.6-.4-1-1-1z"></path><path d="M13.5 2h-3C9.1 2 8 3.1 8 4.5V5H5c-.6 0-1 .4-1 1s.4 1 1 1h.1l.8 11.2C6 20.4 7.7 22 9.8 22h4.4c2.1 0 3.9-1.6 4-3.7L18.9 7h.1c.6 0 1-.4 1-1s-.4-1-1-1h-3v-.5C16 3.1 14.9 2 13.5 2zM10 4.5c0-.3.2-.5.5-.5h3c.3 0 .5.2.5.5V5h-4v-.5zM16.9 7l-.8 11.1c-.1 1.1-.9 1.9-2 1.9H9.8c-1.1 0-1.9-.8-2-1.9L7.1 7h9.8z"></path></svg>